<svg width="698" height="701" version="1.1" xmlns="http://www.w3.org/2000/svg" desc="Created with imagetracer.js version 1.2.6" ><path fill="rgb(0,0,0)" stroke="rgb(0,0,0)" stroke-width="1" opacity="0" d="M 0 0 L 698 0 L 698 701 L 0 701 L 0 0 Z M 327 74 L 326 75 L 316 75 L 315 76 L 308 76 L 285 80 L 265 85 L 232 97 Q 191 115 160 143 Q 124 174 100 217 L 87 243 L 76 273 L 68 307 L 67 320 L 66 321 L 66 331 L 65 332 L 65 370 L 66 371 L 67 391 L 71 413 L 79 442 Q 100 500 138 542 Q 178 585 235 611 L 277 626 L 299 631 L 318 633 L 319 634 L 329 634 L 330 635 L 370 635 L 371 634 L 382 634 L 383 633 L 407 630 L 445 619 Q 501 597 542 559 Q 583 521 608 467 L 618 441 L 625 415 L 629 393 L 629 386 L 630 385 L 630 375 L 631 374 L 631 333 L 630 332 L 630 321 L 629 320 L 629 313 L 626 301 L 626 296 L 619 269 Q 600 210 563 169 Q 521 119 455 93 L 427 84 L 400 78 L 379 76 L 378 75 L 367 75 L 366 74 L 327 74 Z " /><path fill="rgb(0,0,0)" stroke="rgb(0,0,0)" stroke-width="1" opacity="0" d="M 341.5 111 L 371.5 112 L 372.5 113 L 393.5 115 Q 421.4 120.1 444.5 130 Q 496 152 531 190.5 Q 563.5 225 582 273.5 L 590 300.5 L 594 323.5 L 594 332.5 L 595 333.5 L 595 371.5 L 594 372.5 L 594 381.5 L 593 382.5 L 592 394.5 L 584 425.5 L 576 446.5 L 564 470.5 Q 543.3 506.8 513.5 534 Q 479 566 430.5 584 L 414.5 589 L 386.5 595 L 371.5 596 L 370.5 597 L 342.5 598 L 341.5 597 L 324.5 597 L 323.5 596 L 316.5 596 L 293.5 592 L 265.5 584 L 243.5 575 Q 196.6 552.4 164 515.5 Q 138.8 487.2 122 450.5 L 108 410.5 L 102 376.5 L 104.5 375 L 105.5 376 L 115.5 376 L 126.5 379 L 146.5 390 L 216.5 452 Q 236.1 468.9 259.5 482 Q 280.4 493.6 306.5 500 L 317.5 502 L 325.5 502 L 326.5 503 L 347.5 503 L 348.5 502 L 361.5 501 L 385.5 494 Q 414.6 481.6 435 460.5 L 446 448.5 L 444.5 448 Q 410.6 482.1 341.5 481 L 340.5 480 L 325.5 479 L 304.5 474 Q 283.2 467.3 265.5 457 L 230.5 433 L 175.5 386 L 152 369.5 L 176.5 355 L 243.5 302 L 278.5 278 Q 294.2 268.7 313.5 263 L 332.5 259 L 357.5 258 L 358.5 259 L 373.5 260 L 385.5 263 L 414.5 275 L 440.5 292 L 500.5 340 L 527.5 359 L 550.5 371 Q 555.5 374 564.5 373 L 572 367.5 Q 574.8 364.8 574 358.5 L 567.5 350 Q 548.7 343.8 534.5 333 L 451.5 268 L 427.5 253 L 398.5 240 L 376.5 234 L 363.5 233 L 362.5 232 L 336.5 232 L 304.5 238 Q 285.8 243.3 270.5 252 L 240.5 271 L 158.5 336 Q 148.6 342.6 135.5 346 L 114.5 348 L 113.5 347 L 102 347 L 102 330.5 L 103 329.5 L 103 322.5 L 104 321.5 L 106 304.5 L 110 288.5 L 121 258.5 Q 140.5 216 171.5 185 Q 173.8 185.8 173 183.5 Q 205.3 150.8 250.5 131 L 268.5 124 L 298.5 116 L 315.5 114 L 316.5 113 L 340.5 112 L 341.5 111 Z M 345 303 L 332 309 L 323 320 L 282 400 L 278 402 L 274 401 L 265 390 L 239 347 Q 234 338 223 336 Q 216 335 213 338 Q 208 341 207 347 Q 206 352 209 355 L 254 427 Q 260 436 274 439 L 282 439 L 292 435 L 301 426 L 342 345 L 347 340 L 351 340 L 356 347 L 396 427 Q 402 437 417 439 Q 428 439 435 434 L 447 419 L 490 351 Q 491 344 488 342 Q 485 337 480 336 Q 470 336 465 340 L 452 356 L 427 397 L 421 402 L 417 401 L 412 396 L 371 315 Q 364 302 345 303 Z " /><path fill="rgb(254,254,254)" stroke="rgb(254,254,254)" stroke-width="1" opacity="1" d="M 326.5 74 L 365.5 74 L 366.5 75 L 377.5 75 L 378.5 76 L 399.5 78 L 426.5 84 L 454.5 93 Q 520.6 118.9 563 168.5 Q 599.7 209.8 619 268.5 L 626 295.5 L 626 300.5 L 629 312.5 L 629 319.5 L 630 320.5 L 630 331.5 L 631 332.5 L 631 373.5 L 630 374.5 L 630 384.5 L 629 385.5 L 629 392.5 L 625 414.5 L 618 440.5 L 608 466.5 Q 583.2 521.2 541.5 559 Q 501.1 597.1 444.5 619 L 406.5 630 L 382.5 633 L 381.5 634 L 370.5 634 L 369.5 635 L 329.5 635 L 328.5 634 L 318.5 634 L 317.5 633 L 298.5 631 L 276.5 626 L 234.5 611 Q 177.6 584.9 138 541.5 Q 99.7 500.3 79 441.5 L 71 412.5 L 67 390.5 L 66 370.5 L 65 369.5 L 65 331.5 L 66 330.5 L 66 320.5 L 67 319.5 L 68 306.5 L 76 272.5 L 87 242.5 L 100 216.5 Q 124.2 174.2 159.5 143 Q 190.9 115.4 231.5 97 L 264.5 85 L 284.5 80 L 307.5 76 L 314.5 76 L 315.5 75 L 325.5 75 L 326.5 74 Z M 342 111 L 341 112 L 317 113 L 316 114 L 299 116 L 269 124 L 251 131 Q 205 151 173 184 Q 174 186 172 185 Q 140 216 121 259 L 110 289 L 106 305 L 104 322 L 103 323 L 103 330 L 102 331 L 102 347 L 114 347 L 115 348 L 136 346 Q 149 343 159 336 L 241 271 L 271 252 Q 286 243 305 238 L 337 232 L 363 232 L 364 233 L 377 234 L 399 240 L 428 253 L 452 268 L 535 333 Q 549 344 568 350 L 574 359 Q 575 365 572 368 L 565 373 Q 556 374 551 371 L 528 359 L 501 340 L 441 292 L 415 275 L 386 263 L 374 260 L 359 259 L 358 258 L 333 259 L 314 263 Q 294 269 279 278 L 244 302 L 177 355 L 152 370 L 176 386 L 231 433 L 266 457 Q 283 467 305 474 L 326 479 L 341 480 L 342 481 Q 411 482 445 448 L 446 449 L 435 461 Q 415 482 386 494 L 362 501 L 349 502 L 348 503 L 327 503 L 326 502 L 318 502 L 307 500 Q 280 494 260 482 Q 236 469 217 452 L 147 390 L 127 379 L 116 376 L 106 376 L 105 375 L 102 377 L 108 411 L 122 451 Q 139 487 164 516 Q 197 552 244 575 L 266 584 L 294 592 L 317 596 L 324 596 L 325 597 L 342 597 L 343 598 L 371 597 L 372 596 L 387 595 L 415 589 L 431 584 Q 479 566 514 534 Q 543 507 564 471 L 576 447 L 584 426 L 592 395 L 593 383 L 594 382 L 594 373 L 595 372 L 595 334 L 594 333 L 594 324 L 590 301 L 582 274 Q 564 225 531 191 Q 496 152 445 130 Q 421 120 394 115 L 373 113 L 372 112 L 342 111 Z " /><path fill="rgb(254,254,254)" stroke="rgb(254,254,254)" stroke-width="1" opacity="1" d="M 344.5 303 Q 364.1 302.4 371 314.5 L 412 395.5 L 416.5 401 L 420.5 402 L 427 396.5 L 452 355.5 L 464.5 340 Q 469.8 335.8 479.5 336 Q 485.3 337.3 488 341.5 Q 490.6 344.4 490 350.5 L 447 418.5 L 434.5 434 Q 428.3 439.3 416.5 439 Q 402.2 436.8 396 426.5 L 356 346.5 L 350.5 340 L 346.5 340 L 342 344.5 L 301 425.5 L 291.5 435 L 281.5 439 L 273.5 439 Q 260.1 436.4 254 426.5 L 209 354.5 Q 206.3 352.2 207 346.5 Q 208.3 340.8 212.5 338 Q 215.8 335.3 222.5 336 Q 233.6 338.4 239 346.5 L 265 389.5 L 273.5 401 L 277.5 402 L 282 400 L 323 319.5 L 331.5 309 L 344.5 303 Z " /></svg>